<?xml version="1.0" encoding="UTF-8"?>
<!DOCTYPE svg PUBLIC "-//W3C//DTD SVG 1.1//EN" "http://www.w3.org/Graphics/SVG/1.1/DTD/svg11.dtd">
<!-- Creator: CorelDRAW 2021 (64-Bit) -->
<svg xmlns="http://www.w3.org/2000/svg" xml:space="preserve" width="10.2601cm" height="10.2112cm" version="1.1" style="shape-rendering:geometricPrecision; text-rendering:geometricPrecision; image-rendering:optimizeQuality; fill-rule:evenodd; clip-rule:evenodd"
viewBox="0 0 4278.55 4258.16"
 xmlns:xlink="http://www.w3.org/1999/xlink"
 xmlns:xodm="http://www.corel.com/coreldraw/odm/2003">
 <defs>
  <style type="text/css">
   <![CDATA[
    .fil0 {fill:url(#id0)}
   ]]>
  </style>
  <radialGradient id="id0" gradientUnits="userSpaceOnUse" gradientTransform="matrix(-0.0620085 2.18914 -2.18914 -0.0620086 3070 -3717)" cx="1925.35" cy="468.4" r="2139.27" fx="1925.35" fy="468.4">
   <stop offset="0" style="stop-opacity:1; stop-color:#F8EDB7"/>
   <stop offset="0.439216" style="stop-opacity:1; stop-color:#C4A568"/>
   <stop offset="0.568627" style="stop-opacity:1; stop-color:#905E19"/>
   <stop offset="0.796078" style="stop-opacity:1; stop-color:#C17B1C"/>
   <stop offset="1" style="stop-opacity:1; stop-color:#F2981E"/>
  </radialGradient>
 </defs>
 <g id="Layer_x0020_1">
  <metadata id="CorelCorpID_0Corel-Layer"/>
  <path class="fil0" d="M812.74 1835.3l372.74 -1.97c4.03,503.78 1.31,1007.68 2.61,1511.49l-0.1 23.33c14.7,13.35 165.87,108.76 181.76,111.17 4.17,-483.76 1.28,-967.68 1.78,-1451.45l-0.05 -291.41c13.78,-8.92 35.43,-25.69 48.33,-35.95 17.52,-13.94 30.5,-24.91 48.69,-39.63l96.76 -76.08c38.15,-33.16 81.68,-61.32 119.93,-95.54 8.37,-7.49 12.13,-14.09 21.61,-20.79 52.65,-37.23 157.38,-130.28 192.72,-153.39 9.04,-5.91 15.88,-12.36 23.56,-18.64l216.08 -172.84c17.13,8.57 73.19,59.81 94.42,75.64 17.16,12.79 30.8,24.02 46.61,38.1l312.28 249.13c23.57,20.9 48.97,36.1 72.94,57.86 29.04,26.36 222.57,182.84 241.93,192.02 5.38,103.76 0.26,332.33 0.41,443.35l0.12 1300.41c23.65,-2.39 161.6,-95.5 182.17,-114.11l2.64 -1531.63 376.22 -1.51c-33.81,-33.49 -77.28,-63.26 -114.35,-91.78l-114.51 -93.74c-37.56,-32.17 -77.27,-60.85 -114.19,-94.32 -15.15,-13.74 -24.24,-17.44 -40.31,-30.07 -25.66,-20.17 -53.5,-41.89 -77.76,-63.31 -98.01,-86.56 -76.34,-21.19 -75.3,-257.94l0.44 -277.6 -235.1 -1.36c-1.62,94.81 2.41,190.11 -2.29,284.81 -18.84,-14.42 -41.25,-28.29 -59.27,-44.01l-175.78 -142.22c-19.88,-16.9 -39.12,-30.12 -58.82,-47.07 -68.41,-55.04 -139.15,-108.72 -206.97,-163.7 -59.34,-48.12 -43.74,-57.73 -90.58,-18.2l-234.9 188.68c-48.69,40.47 -98.87,76.54 -146.69,118.32l-89.77 69.08c-19.24,14.89 -37.79,34.32 -58.48,47.44 -30.96,19.64 -59.48,49.47 -87.91,70.88 -30.08,22.66 -56.18,49.76 -88.52,70.41l-117.49 94.52c-59.91,41.4 -115.72,97.55 -174.56,142.91 -11.44,8.82 -19.78,12 -30.81,22.11 -10.42,9.56 -17.76,16.96 -28.03,25.04 -19.96,15.71 -39.12,32.52 -58.99,47.04 -38.45,28.1 -78.72,64.81 -116.42,95.49 -9.52,7.75 -19.36,15.48 -28.88,23.92 -5.5,4.88 -7.37,6.49 -13.55,10.94 -9.02,6.51 -11.44,7.09 -16.36,16.16zm-258.99 -327.63c21.7,-68.53 94.23,-203.65 132,-265.68 24.6,-40.38 53.42,-82.45 79.6,-118.4 85.02,-116.73 232.81,-268.05 348.55,-350.5l56.91 -41.86c39.29,-26.26 80.67,-51.91 124.82,-76.2 176.22,-96.93 358.35,-171.18 592.77,-204.46 458.69,-65.14 898.81,49.34 1254.92,304.73 228.39,163.8 424.37,398.02 541.28,656.24 40.46,89.37 77.63,188.42 105.27,293.75 49.49,188.66 57.75,350.38 48.64,544.92 -2.99,63.76 -15.52,123.91 -20.3,180.68l-3.92 30.54c3.05,-11.68 5.85,-25.06 8.18,-35.66 4.69,5.71 5.55,4.62 3.72,20.36 -1.13,9.71 -1.73,14.54 -1.78,25.47 68.35,-41.02 186.02,30.2 201.91,3.52l13.37 -17.51 0.1 20.99c2.37,-15.42 -0.9,-0.64 6.04,-7.64 3.5,-28.92 11.76,-60.75 13.73,-93.56 1.94,-32.29 7.48,-62.99 10.91,-97.93 6.76,-68.95 5.68,-150.24 3.67,-219.92 -8.5,-293.79 -99.12,-619.67 -243.96,-868.65 -28.37,-48.77 -54.43,-89.66 -85.34,-137.05 -365.79,-560.97 -1076.51,-915.17 -1803.32,-841.32 -135.14,13.73 -240.52,41.63 -370.25,75.62 -182.9,47.93 -442.32,183.59 -591.17,297.87 -21.98,16.88 -41.89,29.36 -61.83,47.89 -13.65,12.69 -19.76,14.62 -32.03,24.62l-143.34 135.47c-16.76,18.08 -37.58,36.41 -53.65,55.86 -89.48,108.31 -111.83,135.44 -189.88,254.88 -48.2,73.77 -89.36,151.23 -124.59,231.73l-3.68 13.67c8.14,3.65 -4.75,4.53 3.49,-0.89 0.33,-0.22 104.93,210.72 174.33,150.07 -8.52,16.59 -5.67,15.68 -0.2,22.08l0.56 -6.45c1.83,-4.42 2.59,-4.91 4.48,-7.29zm-463.18 629.65c-0.5,-307.78 60.81,-575.07 182.37,-849.88 45.66,-103.22 64.42,-124.79 107.44,-209.79 6.65,-13.14 15.29,-26.18 25.42,-38.47l103.93 -150.16c5.88,-7.09 8.54,-10.15 13.9,-17.86 18.8,-26.99 96.15,-114.79 118.24,-135.9l47.31 -51.44c70.37,-71.42 259.72,-226.54 355.89,-279.42l120.42 -69.89c17.86,-11.24 25.64,-12.12 41.88,-21.6l88.6 -42.41c456.3,-206.87 1011.48,-237.83 1494.75,-72.89 62.58,21.36 129.11,41.77 187.45,69.69 60.39,28.89 113.03,55.74 169.27,85.13 27.04,14.13 51.07,31.57 79.67,47.48 13.23,7.36 27.03,15.33 38.78,24.97l183.26 134.24c12.15,10.26 23.66,16.88 35.38,28.14 13.57,13.04 19.49,17.94 32.54,31.12 50.85,51.36 66.02,57.7 130.12,127.47 71.13,77.42 107.2,118.48 171.17,210.14 234.05,335.35 362.17,730.88 368.97,1167.21 3.29,211.34 -34.69,466.56 -103.05,659.16 -11.31,31.86 -21.21,63.22 -32.92,94.14 -44.55,117.66 -150.22,321.32 -222.84,417.06 -8.94,11.78 -18.9,24.85 -26.38,36.33 -62.17,95.37 -186.6,226.26 -271.31,305.01l-138.57 115.82c-224.58,175.16 -505.27,298.74 -787.52,363.95 -143.9,33.24 -301.4,52.38 -458.52,53.22 -414.47,2.21 -859.4,-137.55 -1174.94,-354.01 -105.65,-72.48 -191.59,-143.08 -281.46,-230.75 -129.88,-126.7 -186.54,-204.06 -284.53,-351.31 -40.07,-60.22 -103.31,-183.07 -134.5,-250.54 -107.66,-232.89 -179.71,-531.93 -180.21,-843.95zm2048.58 -2137.32c-156.08,0.31 -334.77,17.37 -479.91,53.75 -119.83,30.04 -292.99,82.02 -399.08,133.77l-136.78 65.22c-13.24,6.76 -24.32,17.18 -41.35,25.83l-204.84 127.08c-48.42,31.6 -102.2,82.09 -150.37,118.14l-69.91 63.94c-13.84,11.36 -20.87,18.27 -33.04,30.85 -37.25,38.51 -58.21,65.81 -97.08,104.38 -40.02,39.71 -163.32,210.39 -198.16,267.72 -27.69,45.56 -100.2,171.55 -119.69,216 -6.31,14.38 -11.64,29.74 -18.89,44.43 -122.11,247.67 -192.15,591.98 -190,875.62 2.73,360.31 70.92,608.28 186.27,880.19 58.88,138.79 160.24,295.77 250.53,416.29 56.95,76.01 121.18,145.87 187.69,211.04 88.32,86.54 182.52,168.15 290.96,241.97 132.06,89.89 198.13,123.4 341.6,191.5 229.08,108.74 579.16,191.51 878.51,190.41 168.32,-0.62 324.27,-20.35 480.23,-55.63 72.89,-16.48 144.17,-34.85 210.04,-58.14 134.93,-47.7 335.87,-136.36 453.86,-213.7 97.88,-64.17 140.09,-95.01 231.34,-167.48 50.15,-39.84 94.47,-81.79 138.75,-125.78l159.37 -175.76c43.09,-53.73 73.24,-96 111.18,-153.48 8.79,-13.31 17.82,-24.57 26.86,-40.12l75.78 -125.14c8.62,-16.57 14.67,-27.61 22.71,-44.46l101.1 -230.78c5.95,-16.15 11.1,-32.72 17.54,-49.97 23.69,-63.46 41.98,-134.78 60.07,-204.32 71.08,-273.06 72.53,-682.58 1.97,-959.3 -37.38,-146.6 -78.05,-278.52 -136.28,-397.84l-90.87 -177.63c-152.31,-281.53 -376.63,-513.63 -635.77,-695.18 -113.79,-79.72 -214.53,-136.23 -340.96,-192.45 -32.62,-14.51 -61.48,-26.97 -93.5,-41.4 -27.15,-12.24 -66.6,-24.27 -99.53,-34.34 -247.77,-75.75 -401.97,-115.81 -690.35,-115.24zm489.03 3746.2c-99.62,21.62 -114.31,33.96 -236.41,52.14 -258.98,38.57 -539.91,13.34 -782.78,-64.6 -152.57,-48.96 -284.13,-113.9 -399.47,-186.27 -518.76,-325.49 -815.33,-912.64 -766.03,-1564.15 8.46,-111.83 35.86,-258.62 72.03,-364.8 13.07,-38.38 28.69,-80.07 38.23,-110.87 -1.9,2.37 -2.65,2.86 -4.48,7.29l-0.56 6.45c-5.47,-6.4 -8.32,-5.49 0.2,-22.08 -69.4,60.65 -174,-150.29 -174.33,-150.07 -8.23,5.42 4.65,4.54 -3.49,0.89l3.68 -13.67c6.1,-13.94 9.35,-21.36 0,0 -4.96,9.49 -19.21,38.15 -23.28,48.25 -74.61,185.24 -109.29,312.01 -137.66,520.04 -52.01,381.3 43.44,827.79 222.09,1148.96 158.06,284.15 400.77,546.88 684.82,712.88 180.37,105.4 274.5,147.7 487.64,211.87 188.34,56.71 417.33,78.18 626.15,70.52 135.33,-4.96 316.18,-35.26 446.16,-74.63 23.23,-7.04 43.63,-13.94 66.43,-21.29 20.63,-6.65 47.36,-17.11 66.4,-20.98l11.86 -7.75c16.03,-16.68 -154.52,-143.29 -119.24,-184.08 -12.25,-9.34 -22.61,-8.16 -37.55,-3.57 -20.21,6.2 -17.19,7.41 -40.42,9.52zm-863.26 -738.66c-14.64,-33.34 -60.82,-87.78 -56.23,-132.19 16.9,1.61 68.58,70.35 91.23,95.48 53.37,59.23 142.27,134.94 228.14,152.38 104.43,21.2 237.61,-5.78 335.87,-33.99 49.92,-14.33 92.73,-35.79 139.09,-51.6 47.08,-16.06 93.95,-43.18 117.92,-72.53 22.28,-27.28 37.04,-68.85 33.82,-107.68 -1.96,-23.64 -9.52,-20.63 -27.1,-15.11 -3.9,-53.46 -10.1,-89.96 -45.47,-110.07 -41.47,-23.58 -96.74,6.83 -124.4,23.9 -65.7,40.55 -153.53,138.6 -175.46,138.75 6.49,-47.56 112.68,-157.99 168.59,-187.86 55.84,-29.83 83.11,-16.63 98.76,-26.91 -27.45,-14.18 -49.24,-17.47 -69.97,-39.63 -15.22,-16.28 -30.22,-61.58 -17.26,-88.07l36.76 -6.88c14.95,37.51 6.99,50.95 41.35,69.64 62.1,33.78 136.9,-22.86 105.35,-88.18 -13.79,-28.55 -30.01,-33.99 -65.13,-45.9 22.28,-61.59 50.25,-86.09 20.52,-174.14 -18.81,-55.69 -55.05,-88.4 -106.61,-108.54 -68.64,-26.81 -109.5,-22.56 -179.02,-1.78 -37.29,11.15 -54.42,12.49 -75.09,35.25 -18.57,20.45 -30.15,54.77 -6.11,81.65 8.32,-4.27 7.66,-5.25 15.29,-19.29 3.27,43.36 -7.01,106.87 -52.92,126.3 7.35,51.88 2.08,130.69 46.58,145.92 66.35,22.7 105.78,-29.72 99.3,89.49 -50.99,27.85 -85.5,45.55 -112.19,95.25 -17.61,32.78 -46.11,115.53 -50.35,157.42 255.9,81.51 311.68,-34.57 348.78,-38.05 -1.33,26.23 -40.68,78.01 -52.56,87.76 -72.55,59.56 -332.61,53.8 -444.81,-46 -22.94,-20.41 -50.02,-47.47 -67.16,-74.12 -27.23,-42.31 -83,-123.33 -91.96,-173.43l1.28 -12.87c13.55,-2.2 76.48,94.38 104.64,122.61 28.75,28.81 86.28,92.93 132.98,105.7 -6.64,-213.89 104.79,-208.02 10.85,-341.13l-50.1 -66.48c-6.52,-8.5 -8.99,-14.76 -14.96,-23.97 -2.87,-4.44 -3.87,-5.95 -7.38,-9.85l-11.66 -10.15c-11.86,-0.15 -5.02,1.27 -11.95,-5.5 -0.25,-0.24 -5.56,-8.36 -7.05,-10.36 -7.08,-9.47 -10.52,-8.74 -12.56,-21.89l-1.11 0.63 -15.05 -19.37 2.95 9.61c0.21,0.77 0.55,3.62 0.71,3.13 0.15,-0.48 0.38,2.07 0.61,3.09 14.49,-2.15 1.77,-1.41 0.74,-1.14 -1.66,0.43 0.95,-2.55 -5.28,2.33l18.36 38.73c1.85,3.28 0.25,0.33 4.1,5.38 13.08,17.17 -4.38,-14.84 3.24,4.15 0.14,9.82 -13.17,9.24 -19.33,24.75l-16.77 -14.06c1.45,11.72 3.24,11.86 8.39,20.31l-8.4 -6.27c3.04,8.34 2.1,6.9 5.7,12.55l7.19 8.15 -4.52 -14.4c7.32,7.04 9.12,7.69 10.9,20.86 -2.99,-13.5 2.16,1.13 -7.6,-5.98 0.33,1.26 0.65,1.82 1,3.79 0.33,1.85 0.76,2.71 1.22,3.49 3.14,5.39 2.5,4.14 5.62,7.24l13.09 14.18 -8.09 2.89 -5.72 -13.94c-4.3,9.74 5.05,12.29 -12.18,1.77 -0.13,-0.08 -12.85,-11.72 -13.33,-12.19 -28.58,-27.94 -25.95,-31.71 -72.49,-72.37 -74.87,-65.4 -173.15,-130.3 -275.89,-75.22 -46.25,24.8 -71.69,51.96 -92.96,101.29 -49.28,114.29 -15.37,214.55 19.61,320.08 26.64,80.37 82.65,209.34 86.27,299.95 0.68,0.89 1.45,1.17 1.7,2.89 0.24,1.71 1.25,2.1 1.56,2.95 0.01,0.03 5.97,8 1.26,55.29 5.29,-15.5 5.66,-32.88 5.54,-53.59 15,14.7 3.57,22.56 11.36,35.76 7.29,-3.06 3.37,-5.55 9.92,-9.37 0.28,-0.16 1.19,-0.55 1.47,-0.67l2.89 -0.24c1.03,-0.24 2.64,5.88 5.38,-4.16 1.49,-5.48 0.86,-11.55 0.9,-17.22l10.21 4.76c6.32,2.09 1.46,2.03 11,2.22 -7.02,-5.55 -6.36,-7.83 -7.06,-14.12 4.74,1.83 8.46,9.85 17.65,10.59 4.75,-17.58 0.19,-12.42 15.32,-14.12 -4.78,12.41 -5.94,2.1 -10.65,14.18l24.03 4.19c8.33,-14.87 -4.84,-2.69 12.28,-19.8l22.66 -22.69c-2.79,-5.59 -11.07,-22.15 -19.56,-21.19l-8.51 4.09c7.42,-12.95 7.43,-6.14 3.34,-22.2 0.66,0.62 1.74,0.59 2.05,1.77l5.98 5.25c2.98,2.84 2.89,1.94 7.03,7.35 1.53,-5.43 1.3,0.29 -0.38,-8.7zm14.33 21.21l0.02 0.28c-6.63,-4.63 -4.4,4.4 -6.78,-9.6 -2.94,5.47 -6.19,-2.85 -0.23,7.96 6.65,12.05 3.73,5 6.99,1.37zm10.41 14.64l-3.01 -4.77c-6.18,-0.6 -5.05,1.16 -4.14,-4.7l3.64 17.87c-6.22,-5.54 -6.53,-5.67 -9.96,-4.21l0.28 4.1c1.83,32.69 11.09,25.14 23.25,24.27 -10.95,-4.92 -6.39,1.03 -17.74,-6.54l10.57 -3.11c-6.13,-4.95 -4.87,-2.21 -5.1,-9.8 -0.51,-17.49 6.83,9.02 2.21,-13.13zm2028.55 -612.49c-6.98,7.91 -8.09,22.87 -10.28,33.44 -32.54,157.7 -79.04,291.84 -151.45,434.57 -70.03,138.05 -164.29,272.37 -255.73,369.42 -8.94,9.49 -11.58,10.53 -20.74,21.51 -6.81,8.17 -11.88,12.54 -19.22,19.71 -13.67,13.37 -25.55,23.78 -39.13,38.42 -51.66,55.7 -193.75,158.63 -263.25,202.97 -63.62,40.59 -131.22,74.45 -205.18,108.53 -56.03,25.82 -135.88,58.35 -195.26,77.41 -9.91,3.18 -7.29,2.32 -16.22,4.95 -6.67,1.97 -5.77,0.78 -13.58,4.37 23.23,-2.11 20.21,-3.32 40.42,-9.52 14.94,-4.59 25.3,-5.77 37.55,3.57 -35.28,40.79 135.27,167.4 119.24,184.08l-11.86 7.75c104,-26.6 342.56,-155.03 442.61,-229.38 71.13,-52.86 210.58,-160.55 274.79,-230.1 119.93,-129.92 199.18,-225.73 288.89,-381.81 61.24,-106.56 119.2,-224.11 159,-346.22 19.55,-59.97 66.46,-210.2 67.01,-273.61 -6.94,7 -3.67,-7.78 -6.04,7.64l-0.1 -20.99 -13.37 17.51c-15.89,26.68 -133.56,-44.53 -201.91,-3.52 0.05,-10.93 0.65,-15.76 1.78,-25.47 1.83,-15.74 0.97,-14.65 -3.72,-20.36 -2.33,10.6 -5.13,23.97 -8.18,35.66l3.92 -30.54zm-1827.79 -58.75c-7.47,-12.08 -19.75,-25.1 -30.12,-34.99 -33.07,-31.54 -64.53,-39.52 -30.27,-150.77 35.67,12.54 77.17,53.77 120.85,48.32l50.43 -68.26c14.4,-11.8 3.99,6.57 21.57,-20.9 8.3,-12.98 21.16,-12.08 38.79,-17.55 -1.2,-67.59 -29.74,-65.53 8.94,-128.9 9.28,-15.21 18.02,-33.46 24.33,-53.69 10.15,-32.56 5.3,-55.32 16.05,-66.34 15.75,26.56 14.32,41.59 8.54,75.76 52.42,-23.83 74.95,-137.81 -10.55,-180.19 -15.76,-7.81 -33.74,-13.91 -48.63,-22.27 -16.01,-8.98 -26.45,-19.8 -41.23,-29.29 -146.21,-93.84 -311.93,-24.08 -369.16,116.87 -13.62,33.54 -21.66,75.49 -36.03,108.75 -30.59,70.84 -100.16,78.89 -140.27,142.2 -18.48,29.17 -30.31,71.52 -20.55,113.48 6.84,29.4 41.25,76.89 70.08,74.62 13.59,-1.07 38.57,-11.7 57.23,-14.45 23.11,-3.42 46.76,-3.36 68.49,1.21 140.61,29.55 216.51,190.28 230.83,196.39l8.4 6.27c-5.14,-8.45 -6.93,-8.59 -8.39,-20.31l16.77 14.06c6.16,-15.52 19.47,-14.93 19.33,-24.75 -7.62,-18.99 9.84,13.02 -3.24,-4.15 -3.85,-5.05 -2.25,-2.1 -4.1,-5.38l-18.36 -38.73c6.22,-4.88 3.61,-1.91 5.28,-2.33 1.03,-0.27 13.75,-1.01 -0.74,1.14 -0.23,-1.03 -0.46,-3.57 -0.61,-3.09 -0.16,0.49 -0.5,-2.36 -0.71,-3.13l-2.95 -9.61zm2.21 110.72l-1.22 0.48c9.76,7.11 4.61,-7.52 7.6,5.98 -1.78,-13.18 -3.58,-13.82 -10.9,-20.86l4.52 14.4zm6.62 15l-0.73 3.14 5.72 13.94 8.09 -2.89 -13.09 -14.18zm7.33 -106.98c2.04,13.15 5.48,12.41 12.56,21.89 1.49,2 6.81,10.12 7.05,10.36 6.93,6.77 0.09,5.35 11.95,5.5l-31.56 -37.75 -1.11 0.63 1.11 -0.63zm-219.94 647.73c-4.23,-9.43 -3.08,-6.38 -7.4,-9.86 -3.27,3.63 -0.34,10.68 -6.99,-1.37 -5.96,-10.81 -2.72,-2.49 0.23,-7.96 2.39,14 0.15,4.97 6.78,9.6 -2.9,-6.02 -2.99,-6.78 -5.58,-10.82 -4.2,-6.55 4.52,5.54 -3.19,-4.54 -6.07,-7.93 -0.28,-0.69 -5.58,-6.14 1.68,8.99 1.91,3.27 0.38,8.7 -4.14,-5.41 -4.04,-4.51 -7.03,-7.35l-5.98 -5.25c-0.31,-1.18 -1.39,-1.15 -2.05,-1.77 4.09,16.06 4.09,9.25 -3.34,22.2l8.51 -4.09c8.49,-0.96 16.77,15.6 19.56,21.19l-22.66 22.69c-17.12,17.11 -3.94,4.92 -12.28,19.8l-24.03 -4.19c4.71,-12.08 5.87,-1.77 10.65,-14.18 -15.12,1.7 -10.56,-3.46 -15.32,14.12 -9.2,-0.75 -12.91,-8.77 -17.65,-10.59 0.7,6.29 0.04,8.57 7.06,14.12 -9.55,-0.19 -4.69,-0.13 -11,-2.22l-10.21 -4.76c-0.04,5.67 0.59,11.73 -0.9,17.22 -2.73,10.04 -4.35,3.92 -5.38,4.16l-2.89 0.24c-0.28,0.11 -1.19,0.5 -1.47,0.67 -6.56,3.82 -2.64,6.31 -9.92,9.37 -7.79,-13.2 3.64,-21.06 -11.36,-35.76 0.12,20.71 -0.25,38.1 -5.54,53.59 4.71,-47.29 -1.26,-55.27 -1.26,-55.29 -0.3,-0.85 -1.31,-1.24 -1.56,-2.95 -0.25,-1.72 -1.02,-2 -1.7,-2.89 1.78,128.51 -61.51,222.13 -101.75,354.82 -7.62,25.13 -25.93,105.42 -25.19,130.72 20.94,7.62 41.15,17.76 62.94,25.65 21,7.6 42.75,15.01 65.27,22.57 111.88,37.59 355.7,86.43 464.49,74.69 1.78,-64.52 5.54,-423.17 0.11,-464.85 -107.45,-9.68 -176.19,-24 -255.67,-101.27l-58.09 -63.26c4.62,22.15 -2.72,-4.36 -2.21,13.13 0.23,7.59 -1.03,4.84 5.1,9.8l-10.57 3.11c11.35,7.57 6.79,1.62 17.74,6.54 -12.16,0.87 -21.42,8.42 -23.25,-24.27l-0.28 -4.1c3.43,-1.46 3.74,-1.33 9.96,4.21l-3.64 -17.87c-0.91,5.85 -2.04,4.09 4.14,4.7zm419.62 167.95l-1.28 466.66c87.36,0.31 198.84,-17.03 276.92,-32.7 31.91,-6.4 207.48,-54 237.76,-71.57 -25.25,-64.17 -129.53,-321.25 -132.43,-375.15 62.65,-9.31 49.61,-7.71 71.29,-28.89 19.72,-19.27 23.05,-12.29 14.92,-42.53 24.81,-21.79 21.6,-27.11 7.53,-52.96 26.85,-27.19 0.62,-47.34 -15.51,-60.47 -26.29,-21.4 -16.39,-4.62 -55.56,26.35 -31.16,24.64 -80.95,51.4 -118.91,71.64 -93.41,49.8 -174.7,68.76 -284.73,99.62z"/>
 </g>
</svg>
